<svg width="12" height="24" viewBox="0 0 12 24" fill="none" xmlns="http://www.w3.org/2000/svg">
<path d="M3.024 24V10.672L1.744 10.448C1.41333 10.384 1.14133 10.2667 0.928 10.096C0.725333 9.92533 0.624 9.68 0.624 9.36V7.6H3.024V6.512C3.024 5.57333 3.168 4.72533 3.456 3.968C3.75467 3.2 4.176 2.55467 4.72 2.032C5.264 1.49867 5.93067 1.088 6.72 0.799999C7.50933 0.511998 8.4 0.367998 9.392 0.367998C9.776 0.367998 10.1387 0.394665 10.48 0.447998C10.832 0.490665 11.184 0.559999 11.536 0.655998L11.44 2.832C11.4187 3.16267 11.2747 3.38133 11.008 3.488C10.752 3.584 10.464 3.632 10.144 3.632C9.696 3.632 9.29067 3.68 8.928 3.776C8.576 3.872 8.27733 4.03733 8.032 4.272C7.78667 4.496 7.6 4.80533 7.472 5.2C7.344 5.584 7.28 6.064 7.28 6.64V7.6H11.376V10.672H7.424V24H3.024Z" fill="#2187E7"/>
</svg>
